<svg xmlns="http://www.w3.org/2000/svg" xmlns:xlink="http://www.w3.org/1999/xlink" version="1.1" x="0px" y="0px" viewBox="0 0 100 100" enable-background="new 0 0 100 100" xml:space="preserve"><path fill="#000000" d="M89.434,43.781c0-0.172-0.027-0.342-0.079-0.507l-7.553-23.747c-0.22-0.693-0.864-1.165-1.591-1.165H19.79  c-0.729,0-1.373,0.472-1.593,1.165l-7.553,23.747c-0.052,0.165-0.078,0.335-0.078,0.507c0,3.9,2.822,7.149,6.53,7.827v24.538  c0,3.026,2.462,5.49,5.49,5.49h54.825c3.025,0,5.489-2.464,5.489-5.49V51.609C86.611,50.931,89.434,47.684,89.434,43.781z   M77.414,78.296H22.587c-1.186,0-2.149-0.965-2.149-2.148V51.511c1.767-0.435,3.304-1.459,4.386-2.854  c0.354,0.455,0.755,0.868,1.195,1.235V65.38c0,3.027,2.464,5.489,5.49,5.489h36.98c3.026,0,5.489-2.462,5.489-5.489V49.892  c0.44-0.368,0.842-0.78,1.193-1.235c1.084,1.396,2.622,2.42,4.387,2.854v24.637C79.562,77.331,78.597,78.296,77.414,78.296z   M29.36,51.544c0.566,0.128,1.154,0.201,1.759,0.201c2.556,0,4.834-1.211,6.294-3.089c1.458,1.878,3.735,3.089,6.292,3.089  s4.837-1.211,6.295-3.089c1.457,1.878,3.735,3.089,6.293,3.089c2.557,0,4.835-1.211,6.295-3.089  c1.458,1.878,3.736,3.089,6.293,3.089c0.604,0,1.19-0.073,1.758-0.201V65.38c0,1.184-0.966,2.149-2.148,2.149H31.51  c-1.185,0-2.149-0.966-2.149-2.149V51.544z M81.469,48.403c-2.55,0-4.624-2.073-4.624-4.622c0-0.925-0.747-1.672-1.671-1.672  c-0.922,0-1.671,0.747-1.671,1.672c0,2.549-2.074,4.622-4.624,4.622c-2.548,0-4.623-2.073-4.623-4.622  c0-0.925-0.749-1.672-1.67-1.672c-0.925,0-1.672,0.747-1.672,1.672c0,2.549-2.075,4.622-4.625,4.622  c-2.549,0-4.623-2.073-4.623-4.622c0-0.925-0.748-1.672-1.671-1.672c-0.924,0-1.672,0.747-1.672,1.672  c0,2.549-2.075,4.622-4.624,4.622s-4.623-2.073-4.623-4.622c0-0.925-0.748-1.672-1.671-1.672c-0.924,0-1.672,0.747-1.672,1.672  c0,2.549-2.074,4.622-4.623,4.622s-4.624-2.073-4.624-4.622c0-0.925-0.747-1.672-1.671-1.672c-0.923,0-1.672,0.747-1.672,1.672  c0,2.549-2.073,4.622-4.622,4.622c-2.47,0-4.492-1.943-4.618-4.381L21,21.706h57.976l7.099,22.316  C85.96,46.46,83.938,48.403,81.469,48.403z"/></svg>