<svg xmlns="http://www.w3.org/2000/svg" xmlns:xlink="http://www.w3.org/1999/xlink" version="1.1" x="0px" y="0px" viewBox="0 0 100 125" enable-background="new 0 0 100 100" xml:space="preserve"><path d="M76,28v4h10v58c0,3.3-2.7,6-6,6H20c-3.3,0-6-2.7-6-6V32h10v-4H10v62c0,5.5,4.5,10,10,10h60c5.5,0,10-4.5,10-10V28H76z   M36,28v4h28v-4H36z M36,28v4h28v-4H36z"/><path d="M72,39.3V22C72,9.9,62.1,0,50,0S28,9.9,28,22v17.3c-2.3,0.8-4,3-4,5.7c0,3.3,2.7,6,6,6s6-2.7,6-6c0-2.6-1.7-4.8-4-5.7V22  c0-9.9,8.1-18,18-18s18,8.1,18,18v17.3c-2.3,0.8-4,3-4,5.7c0,3.3,2.7,6,6,6s6-2.7,6-6C76,42.4,74.3,40.2,72,39.3z M30,47  c-1.1,0-2-0.9-2-2c0-1.1,0.9-2,2-2s2,0.9,2,2C32,46.1,31.1,47,30,47z M70,47c-1.1,0-2-0.9-2-2c0-1.1,0.9-2,2-2s2,0.9,2,2  C72,46.1,71.1,47,70,47z"/></svg>