<svg xmlns="http://www.w3.org/2000/svg" xmlns:xlink="http://www.w3.org/1999/xlink" version="1.1" x="0px" y="0px" viewBox="0 0 100 100" enable-background="new 0 0 100 100" xml:space="preserve"><g><path fill="#000000" d="M50,14c-8.34,0-15.12,6.78-15.12,15.18v1.86h-4.56c-4.74,0-8.94,3.72-9.48,8.46l-4.38,37.8   c-0.54,4.74,2.94,8.7,7.68,8.7h25.8c0,0,0.06,0,0.12,0h25.799c4.74,0,8.221-3.96,7.681-8.7l-4.38-37.8   c-0.54-4.74-4.74-8.46-9.48-8.46h-4.56v-1.86C65.12,20.78,58.34,14,50,14L50,14z M50,15.62c7.5,0,13.5,6.06,13.5,13.56v1.86h-7.38   H43.88H36.5v-1.86C36.5,21.68,42.5,15.62,50,15.62L50,15.62z M30.32,32.6h4.56v6.96c-1.26,0.36-2.16,1.5-2.16,2.88   c0,1.62,1.32,3,2.94,3c1.68,0,3-1.38,3-3c0-1.38-0.9-2.52-2.16-2.88V32.6h7.38h12.24h7.38v6.96c-1.26,0.36-2.16,1.5-2.16,2.88   c0,1.62,1.32,3,3,3c1.62,0,2.94-1.38,2.94-3c0-1.38-0.9-2.52-2.16-2.88V32.6h4.56c3.9,0,7.44,3.24,7.86,7.08l4.38,37.8   c0.479,3.899-2.16,6.899-6.061,6.899H50.06H50c0,0,0,0-0.06,0h-25.8c-3.9,0-6.54-3-6.12-6.899l4.38-37.8   C22.88,35.84,26.42,32.6,30.32,32.6L30.32,32.6z M35.66,41.06c0.78,0,1.38,0.6,1.38,1.38c0,0.78-0.6,1.38-1.38,1.38   c-0.72,0-1.38-0.6-1.38-1.38C34.28,41.66,34.94,41.06,35.66,41.06L35.66,41.06z M64.34,41.06c0.72,0,1.38,0.6,1.38,1.38   c0,0.78-0.66,1.38-1.38,1.38c-0.78,0-1.38-0.6-1.38-1.38C62.96,41.66,63.56,41.06,64.34,41.06L64.34,41.06z"/></g></svg>