<svg xmlns="http://www.w3.org/2000/svg" xmlns:xlink="http://www.w3.org/1999/xlink" version="1.1" x="0px" y="0px" viewBox="0 0 100 125" enable-background="new 0 0 100 125" xml:space="preserve">
    <g display="none">
        <g display="inline" opacity="0.2">
            <g>
                <path fill="#000000" stroke="#CCCCCC" stroke-miterlimit="5" d="M129.5,2.301c0-6.075-4.925-11-11-11h-138c-6.075,0-11,4.925-11,11     v95c0,6.075,4.925,11,11,11h138c6.075,0,11-4.925,11-11V2.301z" />
            </g>
            <g>
                <path fill="#000000" stroke="#CCCCCC" stroke-miterlimit="5" d="M108.5-19.699c0-6.075-4.925-11-11-11h-94c-6.075,0-11,4.925-11,11     v138c0,6.075,4.925,11,11,11h94c6.075,0,11-4.925,11-11V-19.699z" />
            </g>
            <g>
                <path fill="#000000" stroke="#CCCCCC" stroke-miterlimit="5" d="M121.5-11.699c0-6.075-4.925-11-11-11h-119     c-6.075,0-11,4.925-11,11v121c0,6.075,4.925,11,11,11h119c6.075,0,11-4.925,11-11V-11.699z" />
            </g>
            <ellipse fill="#000000" stroke="#CCCCCC" stroke-miterlimit="5" cx="50" cy="49.761" rx="36.254" ry="36.04" />
            <ellipse fill="#000000" stroke="#CCCCCC" stroke-miterlimit="5" cx="50" cy="49.761" rx="80" ry="79.526" />
        </g>
    </g>
    <g>
        <g>
            <g>
                <path fill="#000000" d="M86.135,91.801H13.31c-1.583,0-3.31-1.063-3.31-2.646V46.146c0-1.583,1.416-2.867,3-2.867     s3,1.284,3,2.867v39.654h67V46.146c0-1.583,1.416-2.867,3-2.867s3,1.284,3,2.867v43.008C89,90.737,87.719,91.801,86.135,91.801z" />
            </g>
        </g>
        <g>
            <path fill="#000000" d="M76,76.934c0,1.584-1.283,2.867-2.867,2.867H26.867c-1.584,0-2.867-1.283-2.867-2.867V56.668    c0-1.584,1.283-2.867,2.867-2.867h46.266c1.584,0,2.867,1.283,2.867,2.867V76.934z M29,73.801h41v-14H29V73.801z" />
        </g>
        <g>
            <g>
                <path fill="#000000" d="M14.703,48.731c-6.469,0-11.73-5.216-11.73-11.626c0-0.368,0.071-0.733,0.209-1.074L14.363,8.482     c0.438-1.084,1.489-1.682,2.658-1.682h68.54c1.253,0,2.36,0.703,2.735,1.898l8.642,27.469c0.088,0.278,0.132,0.54,0.132,0.831     c0,6.455-5.251,11.692-11.706,11.692s-11.706-5.258-11.706-11.713c0-1.583,1.284-2.869,2.867-2.869     c1.584,0,2.867,1.281,2.867,2.864c0,3.293,2.679,5.971,5.972,5.971c3.159,0,5.753-2.223,5.959-5.331l-7.867-24.813H18.955     L8.729,37.853c0.261,3.014,2.841,5.267,5.975,5.267c3.32,0,6.021-2.717,6.021-5.98c0-1.583,1.283-2.897,2.867-2.897     c1.583,0,2.866,1.27,2.866,2.853C26.458,43.52,21.186,48.731,14.703,48.731z" />
            </g>
            <g>
                <path fill="#000000" d="M32.332,48.678c-6.455,0-11.706-5.251-11.706-11.706c0-1.583,1.283-2.866,2.867-2.866     c1.583,0,2.866,1.283,2.866,2.866c0,3.293,2.68,5.972,5.973,5.972c3.292,0,5.971-2.679,5.971-5.972     c0-1.583,1.284-2.866,2.867-2.866c1.584,0,2.867,1.283,2.867,2.866C44.037,43.427,38.786,48.678,32.332,48.678z" />
            </g>
            <g>
                <path fill="#000000" d="M50.009,48.678c-6.454,0-11.706-5.251-11.706-11.706c0-1.583,1.284-2.866,2.867-2.866     c1.584,0,2.867,1.283,2.867,2.866c0,3.293,2.68,5.972,5.972,5.972c3.293,0,5.972-2.679,5.972-5.972     c0-1.583,1.284-2.866,2.867-2.866c1.584,0,2.867,1.283,2.867,2.866C61.715,43.427,56.464,48.678,50.009,48.678z" />
            </g>
            <g>
                <path fill="#000000" d="M67.687,48.678c-6.455,0-11.706-5.251-11.706-11.706c0-1.583,1.284-2.866,2.867-2.866     c1.584,0,2.867,1.283,2.867,2.866c0,3.293,2.68,5.972,5.972,5.972c3.293,0,5.972-2.679,5.972-5.972     c0-1.583,1.284-2.866,2.867-2.866c1.584,0,2.867,1.283,2.867,2.866C79.393,43.427,74.142,48.678,67.687,48.678z" />
            </g>
        </g>
    </g>
</svg>