<svg xmlns:x="http://ns.adobe.com/Extensibility/1.0/" xmlns:i="http://ns.adobe.com/AdobeIllustrator/10.0/" xmlns:graph="http://ns.adobe.com/Graphs/1.0/" xmlns="http://www.w3.org/2000/svg" xmlns:xlink="http://www.w3.org/1999/xlink" xmlns:a="http://ns.adobe.com/AdobeSVGViewerExtensions/3.0/" version="1.1" x="0px" y="0px" viewBox="0 0 100 100" enable-background="new 0 0 100 125" xml:space="preserve"><g><polygon points="73.5,52.3 81.7,52.3 74.6,24 28.9,24 21.7,52.3 27.9,52.3 27.9,76 73.5,76 73.5,50.5 71.7,50.5 71.7,50.5    71.7,74.2 29.7,74.2 29.7,52.3 29.7,52.3 29.7,50.5 29.7,50.5 29.7,50.5 27.9,50.5 24.1,50.5 30.3,25.8 73.1,25.8 79.4,50.5    73.5,50.5  "/><path fill="#000000" d="M67.6,51.4c-0.4,0.4-0.8,0.6-1.2,0.8c-0.4,0.2-0.8,0.3-1.3,0.3c-0.5,0-0.9-0.1-1.4-0.4   c-0.5-0.3-1-0.7-1.4-1.4l-0.6-0.9L61,50.7c-0.4,0.5-0.8,1.4-1.3,1.7c-0.5,0.3-0.9,0.9-1.6,0.9h0c-0.6,0-1.1-0.6-1.6-0.9   c-0.5-0.3-0.9-0.9-1.3-1.5l-0.6-0.9L54,50.7c-0.4,0.6-0.8,1.4-1.3,1.7c-0.5,0.3-0.9,0.8-1.6,0.8h0h0c-0.6,0-1.1-0.5-1.6-0.8   c-0.5-0.3-0.9-1-1.3-1.5l-0.6-0.9L47,50.7c-0.4,0.5-0.9,1.3-1.3,1.6c-0.5,0.3-0.9,0.8-1.6,0.8h0c-0.6,0-1.1-0.6-1.6-0.9   c-0.5-0.3-0.9-1-1.3-1.5l-0.6-1L40,50.7c-0.5,0.6-1,1.1-1.4,1.3c-0.5,0.3-0.9,0.4-1.4,0.4c-0.4,0-0.8-0.1-1.3-0.3   c-0.4-0.2-0.7-0.5-1.1-0.9l-1.1-1.4v20.8h35.1l0.1-20.3L67.6,51.4z M67.1,69h-32V53.7c2.7,2.1,5.1-0.5,5.4-0.7   c0.3-0.3,2.6,1.7,4.3,1.9c1.7,0.1,3-1.5,3.4-1.9c0.3,0.4,0.5,1.7,3.1,1.7c2.6,0,3.2-1.7,3.5-2c0.3,0.3,1.2,2.3,3.7,2.2   c2.5-0.1,3.2-2.8,3.5-2.5c0.2,0.2,1.7,2.2,2.8,2.3c0.7,0.1,2.3-0.7,2.3-1V69z"/></g></svg>