<svg xmlns="http://www.w3.org/2000/svg" xmlns:xlink="http://www.w3.org/1999/xlink" version="1.1" x="0px" y="0px" viewBox="0 0 100 125" enable-background="new 0 0 100 100" xml:space="preserve"><g><polygon points="9.6,47.7 9.6,47.7 9.6,47.7 9.6,47.7 9.6,47.7  "/><path d="M94.2,46C94,45.6,87,25.5,84,15.5c-0.2-0.5-0.4-1.1-0.8-1.5c-0.4-0.5-0.9-0.8-1.4-1.1c-1.1-0.6-2.4-0.8-4-0.8   c-5.1,0-15.3,0-25.7,0c-1.3,0-2.6,0-3.9,0c-10.4,0-20.5,0-25.7,0c-1.6,0-2.9,0.2-4,0.8c-0.5,0.3-1,0.7-1.4,1.1   c-0.4,0.5-0.7,1-0.8,1.5c-3,10-10.1,30.1-10.3,30.5c-0.2,0.4-0.4,1-0.4,1.7c0,0.5,0.1,1,0.3,1.4c0.8,1.9,1.4,3.4,2.8,4.4   c1.3,1,4.3,1.5,4.3,1.5c0,11.3,0,17.4,0,28.8c0,0.8,0.6,1.6,0.9,2.3c0.5,1,1.5,1.9,2.5,2.3c0.9,0.4,2,0.7,3,0.7   c7.9,0,22.7,0,28.7,0v0c1,0,0.3,0,1.5,0c1.2,0,1.5,0,1.5,0v0c8,0,21.4,0,29.3,0c1,0,2.3-0.2,3.3-0.7c0.9-0.4,2.1-1.2,2.6-2.3   c0.3-0.7,0.9-1.5,0.9-2.3c0-11.5,0-17.6,0-28.8c0,0,3-0.5,4.4-1.5c1.4-1,2.2-2.6,3-4.4c0.2-0.5,0.3-1,0.3-1.4   C94.6,47,94.4,46.4,94.2,46z M9.4,47.7L9.4,47.7L9.4,47.7L9.4,47.7z M88.8,50.5c-0.7,0.5-1.4,0.8-2.6,0.8c-0.4,0-0.8,0-1.3-0.1   c-0.6-0.1-1,0.1-1.4,0.4C83,52,83,52.5,83,53.1c0,0.5,0,0.9,0,1.4c0,11.7,0,17.8,0,29.5c0,0.5-0.3,0.7-0.4,0.8   c-0.1,0.1-0.5,0.3-0.8,0.4c-0.2,0.1-0.6,0.1-1,0.1c-8.7,0-25,0-30.6,0.1c-5.6,0-21.9,0-30.6-0.1c-0.4,0-0.7-0.1-1-0.1   c-0.4-0.1-0.4-0.2-0.5-0.4C18,84.7,18,84.5,18,84c0-11.7,0-17.8,0-29.5c0-0.5,0-0.9,0-1.4c0-0.6-0.4-1.1-0.8-1.5   c-0.4-0.4-1.1-0.5-1.6-0.4c-0.5,0.1-1,0.1-1.4,0.1c-1.2,0-1.7-0.3-2.4-0.8C11,50,11,49.1,10,47.7v0c0,0-0.2,0-0.2,0l-0.1,0l0,0l0,0   c0.1-0.2,0.3-0.8,0.6-1.6c2.8-10,6.7-19.2,9.9-29.5l0.1-0.2c0.1-0.1,0.2-0.1,0.6-0.3c0.4-0.1,1-0.2,1.9-0.2c5.1,0,15.2,0,25.7,0   c1.3,0,2.6,0,3.9,0c10.3,0,20.5,0,25.7,0c0.9,0,1.5,0,1.9,0.2c0.4,0.1,0.5,0.2,0.6,0.3l0.1,0.1c3.1,10.2,7.1,19.5,9.9,29.5   C90.4,46.9,90.9,48.6,88.8,50.5z"/><polygon points="90.7,47.7 90.7,47.7 90.7,47.7 90.7,47.7 90.7,47.7  "/></g><path d="M81.3,85.3L81.3,85.3L81.3,85.3L81.3,85.3C81.3,85.2,81.3,85.2,81.3,85.3L81.3,85.3L81.3,85.3z"/><polygon points="81.5,85.4 81.5,85.4 81.3,85.2 "/><polygon points="81.5,85.4 81.4,85.2 81.3,85.2 "/><polygon points="81.3,85.2 81.3,85.3 81.5,85.4 81.5,85.4 81.5,85.4 "/><path d="M23.1,52.4h-1.3c0,0.5,0,0.7,0,1c0,0.1,0,0.2,0,0.2c0,4,0,8.1,0,12.1c0,3.9,0,7.7,0,11.6c0,0.6,0.1,1.1,0.2,1.6  c0.1,0.4,0.3,0.7,0.5,1c0.4,0.5,0.9,0.8,1.4,1c0.5,0.2,1.1,0.3,1.8,0.3c0.8,0,1.6,0,2.5,0c1.2,0,2.4,0,3.6,0c6.8,0,13.6,0,20.4,0  c7.6,0,15.1,0,22.7,0c0.6,0,1.2-0.1,1.7-0.2c0.4-0.1,0.8-0.3,1.1-0.5c0.5-0.4,0.9-0.9,1.1-1.5c0.2-0.6,0.3-1.2,0.3-1.9  c0-3.5,0-7,0-10.5c0-4.4,0-8.8,0-13.2c0-0.4,0-0.7-0.1-1.1l-0.2-3.1l-2,2.3c-0.6,0.7-1.3,1.2-1.9,1.6c-0.7,0.3-1.3,0.5-2,0.5  c-0.7,0-1.5-0.2-2.2-0.6c-0.8-0.4-1.5-1.2-2.3-2.2l-1-1.5l-1,1.4c-0.6,0.9-1.3,1.6-2,2.1c-0.7,0.5-1.5,0.8-2.5,0.8l0,0  c-1,0-1.7-0.3-2.5-0.8c-0.7-0.5-1.4-1.2-2.1-2.1l-1-1.4l-1,1.4c-0.7,0.9-1.4,1.6-2.1,2.1c-0.7,0.5-1.5,0.7-2.5,0.7l0,0h0  c-1,0-1.7-0.3-2.5-0.8c-0.7-0.5-1.4-1.2-2-2.1l-1-1.4l-1,1.4c-0.7,1-1.5,1.7-2.3,2.2c-0.8,0.5-1.6,0.7-2.3,0.7  c-0.7,0-1.5-0.2-2.2-0.6c-0.8-0.4-1.6-1.1-2.3-2.2l-0.9-1.2l-1,1c-1.1,1.1-2,1.8-2.9,2.3c-0.8,0.5-1.5,0.7-2.1,0.7  c-0.5,0-1.1-0.1-1.7-0.5c-0.6-0.3-1.3-0.9-2.1-1.7l-2.2-2.3v3.2H23.1l-0.9,0.9c0.9,0.9,1.8,1.7,2.7,2.2c0.9,0.5,1.9,0.8,3,0.8  c1.2,0,2.3-0.4,3.4-1c1.1-0.6,2.2-1.5,3.4-2.7l-0.9-0.9l-1,0.8c0.9,1.2,2,2.2,3.1,2.8c1.1,0.6,2.3,1,3.5,1c1.3,0,2.5-0.4,3.6-1  c1.1-0.7,2.1-1.6,3-2.9l-1-0.7l-1,0.8c0.7,1,1.6,2,2.7,2.7c1.1,0.7,2.4,1.2,3.9,1.2h0l0.1,0c1.5,0,2.8-0.4,3.9-1.2  c1.1-0.7,2-1.7,2.7-2.8l-1-0.7l-1,0.8c0.8,1,1.6,2,2.7,2.7c1.1,0.7,2.4,1.2,3.9,1.2l0.1,0c1.5,0,2.8-0.5,3.9-1.2  c1.1-0.7,2-1.7,2.7-2.7l-1-0.7l-1,0.7c0.9,1.3,1.9,2.3,3.1,2.9c1.1,0.7,2.3,1,3.5,1c1.1,0,2.2-0.3,3.2-0.8c1-0.5,1.9-1.2,2.7-2.1  l-1-0.8l-1.3,0.1c0,0.5,0.1,0.8,0.1,1c0,4.4,0,8.8,0,13.2c0,3.5,0,7,0,10.5c0,0.4,0,0.8-0.1,1c0,0.2-0.1,0.2-0.1,0.3  c-0.1,0.1-0.1,0.1-0.3,0.2c-0.2,0.1-0.6,0.1-1.1,0.1c-7.6,0-15.1,0-22.7,0c-6.8,0-13.6,0-20.4,0c-1.2,0-2.4,0-3.6,0  c-0.8,0-1.6,0-2.4,0c-0.4,0-0.6,0-0.8-0.1c-0.1,0-0.2-0.1-0.3-0.1c-0.1-0.1-0.1-0.1-0.2-0.3c-0.1-0.2-0.1-0.5-0.1-0.9  c0-3.9,0-7.7,0-11.6c0-4,0-8.1,0-12.1c0-0.1,0-0.2,0-0.2c0-0.3,0-0.5,0-1H23.1l-0.9,0.9L23.1,52.4z"/></svg>